<svg width="512" height="512" viewBox="0 0 512 512" xmlns="http://www.w3.org/2000/svg"> <style type="text/css"> path { fill: rgba(255,150,117,0.502); fill-rule: evenodd; clip-rule: evenodd; } </style> <path d="M352.9,258.5c-6.6,17.7-21.7,28.4-33.6,23.9c-11.9-4.5-13.8-22.4-7.2-40.1c6.6-17.7,19.3-28.4,31.2-23.9 C355.2,222.9,359.5,240.8,352.9,258.5z M280.1,231.8c-13.3-3.4-17.5-22.2-12.5-41.8s17.6-32.8,30.9-29.4 c13.3,3.4,19.9,22.2,14.8,41.8C308.2,222.1,293.3,235.2,280.1,231.8z M261.6,254.6c11.8,4.4,26.9,11.8,48,44.1 c21.2,32.3-0.7,50.2-7.4,51.9s-14,3.2-30.9-6.4c-7.6-4.3-12.4-4.9-15.4-5.4c-3,0.5-7.8,1.1-15.4,5.4c-16.9,9.5-24.2,8.1-30.9,6.4 s-28.5-19.7-7.4-51.9s36.3-39.7,48-44.1C251.4,254.3,260.6,254.3,261.6,254.6z M231.9,231.8c-13.3,3.4-28.1-9.7-33.2-29.4 c-5.1-19.7,1.5-38.4,14.8-41.8c13.3-3.4,25.8,9.7,30.9,29.4C249.5,209.7,245.2,228.4,231.9,231.8z M192.7,282.4 c-11.9,4.5-26.9-6.2-33.6-23.9c-6.6-17.7-2.4-35.6,9.5-40.1c11.9-4.5,24.6,6.2,31.2,23.9C206.6,260,204.6,277.9,192.7,282.4z"/> <path d="M96.9,2.5c-6.6,17.7-21.7,28.4-33.6,23.9C51.4,21.9,49.4,4,56.1-13.7c6.6-17.7,19.3-28.4,31.2-23.9 C99.2-33.1,103.5-15.2,96.9,2.5z M24.1-24.2C10.8-27.6,6.5-46.3,11.6-66s17.6-32.8,30.9-29.4C55.8-92,62.4-73.2,57.3-53.6 C52.2-33.9,37.3-20.8,24.1-24.2z M5.6-1.4c11.8,4.4,26.9,11.8,48,44.1S53,92.9,46.3,94.7s-14,3.2-30.9-6.4C7.8,84,3,83.4,0,82.9 c-3,0.5-7.8,1.1-15.4,5.4c-16.9,9.5-24.2,8.1-30.9,6.4S-74.8,75-53.7,42.7S-17.4,3-5.6-1.4C-4.6-1.7,4.6-1.7,5.6-1.4z M-24.1-24.2 c-13.3,3.4-28.1-9.7-33.2-29.4c-5.1-19.7,1.5-38.4,14.8-41.8c13.3-3.4,25.8,9.7,30.9,29.4S-10.8-27.6-24.1-24.2z M-63.3,26.4 c-11.9,4.5-26.9-6.2-33.6-23.9c-6.6-17.7-2.4-35.6,9.5-40.1c11.9-4.5,24.6,6.2,31.2,23.9C-49.4,4-51.4,21.9-63.3,26.4z"/> <path d="M608.9,514.5c-6.6,17.7-21.7,28.4-33.6,23.9c-11.9-4.5-13.8-22.4-7.2-40.1c6.6-17.7,19.3-28.4,31.2-23.9 C611.2,478.9,615.5,496.8,608.9,514.5z M536.1,487.8c-13.3-3.4-17.5-22.2-12.5-41.8c5.1-19.7,17.6-32.8,30.9-29.4 c13.3,3.4,19.9,22.2,14.8,41.8C564.2,478.1,549.3,491.2,536.1,487.8z M517.6,510.6c11.8,4.4,26.9,11.8,48,44.1 c21.2,32.3-0.7,50.2-7.4,51.9s-14,3.2-30.9-6.4c-7.6-4.3-12.4-4.9-15.4-5.4c-3,0.5-7.8,1.1-15.4,5.4c-16.9,9.5-24.2,8.1-30.9,6.4 s-28.5-19.7-7.4-51.9s36.3-39.7,48-44.1C507.4,510.3,516.6,510.3,517.6,510.6z M487.9,487.8c-13.3,3.4-28.1-9.7-33.2-29.4 c-5.1-19.7,1.5-38.4,14.8-41.8c13.3-3.4,25.8,9.7,30.9,29.4C505.5,465.7,501.2,484.4,487.9,487.8z M448.7,538.4 c-11.9,4.5-26.9-6.2-33.6-23.9c-6.6-17.7-2.4-35.6,9.5-40.1c11.9-4.5,24.6,6.2,31.2,23.9C462.6,516,460.6,533.9,448.7,538.4z"/> <path d="M608.9,2.5c-6.6,17.7-21.7,28.4-33.6,23.9c-11.9-4.5-13.8-22.4-7.2-40.1c6.6-17.7,19.3-28.4,31.2-23.9 C611.2-33.1,615.5-15.2,608.9,2.5z M536.1-24.2c-13.3-3.4-17.5-22.2-12.5-41.8s17.6-32.8,30.9-29.4c13.3,3.4,19.9,22.2,14.8,41.8 C564.2-33.9,549.3-20.8,536.1-24.2z M517.6-1.4c11.8,4.4,26.9,11.8,48,44.1c21.2,32.3-0.7,50.2-7.4,51.9s-14,3.2-30.9-6.4 c-7.6-4.3-12.4-4.9-15.4-5.4c-3,0.5-7.8,1.1-15.4,5.4c-16.9,9.5-24.2,8.1-30.9,6.4s-28.5-19.7-7.4-51.9s36.3-39.7,48-44.1 C507.4-1.7,516.6-1.7,517.6-1.4z M487.9-24.2c-13.3,3.4-28.1-9.7-33.2-29.4c-5.1-19.7,1.5-38.4,14.8-41.8 c13.3-3.4,25.8,9.7,30.9,29.4S501.2-27.6,487.9-24.2z M448.7,26.4c-11.9,4.5-26.9-6.2-33.6-23.9c-6.6-17.7-2.4-35.6,9.5-40.1 c11.9-4.5,24.6,6.2,31.2,23.9C462.6,4,460.6,21.9,448.7,26.4z"/> <path d="M96.9,514.5c-6.6,17.7-21.7,28.4-33.6,23.9c-11.9-4.5-13.8-22.4-7.2-40.1c6.6-17.7,19.3-28.4,31.2-23.9 C99.2,478.9,103.5,496.8,96.9,514.5z M24.1,487.8c-13.3-3.4-17.5-22.2-12.5-41.8c5.1-19.7,17.6-32.8,30.9-29.4 c13.3,3.4,19.9,22.2,14.8,41.8C52.2,478.1,37.3,491.2,24.1,487.8z M5.6,510.6c11.8,4.4,26.9,11.8,48,44.1s-0.7,50.2-7.4,51.9 s-14,3.2-30.9-6.4C7.8,596,3,595.4,0,594.9c-3,0.5-7.8,1.1-15.4,5.4c-16.9,9.5-24.2,8.1-30.9,6.4s-28.5-19.7-7.4-51.9 s36.3-39.7,48-44.1C-4.6,510.3,4.6,510.3,5.6,510.6z M-24.1,487.8c-13.3,3.4-28.1-9.7-33.2-29.4c-5.1-19.7,1.5-38.4,14.8-41.8 c13.3-3.4,25.8,9.7,30.9,29.4C-6.5,465.7-10.8,484.4-24.1,487.8z M-63.3,538.4c-11.9,4.5-26.9-6.2-33.6-23.9 c-6.6-17.7-2.4-35.6,9.5-40.1c11.9-4.5,24.6,6.2,31.2,23.9C-49.4,516-51.4,533.9-63.3,538.4z"/></svg>